<?xml version="1.0" standalone="no"?>
<!DOCTYPE svg PUBLIC "-//W3C//DTD SVG 20010904//EN"
 "http://www.w3.org/TR/2001/REC-SVG-20010904/DTD/svg10.dtd">
<svg version="1.0" xmlns="http://www.w3.org/2000/svg"
 width="1024.000000pt" height="1024.000000pt" viewBox="0 0 1024.000000 1024.000000"
 preserveAspectRatio="xMidYMid meet">
<metadata>
Created by potrace 1.11, written by Peter Selinger 2001-2013
</metadata>
<g transform="translate(0.000000,1024.000000) scale(0.100000,-0.100000)"
fill="#000000" stroke="none">
<path d="M4990 10068 c-230 -299 -345 -421 -553 -588 -11 -8 -24 -20 -31 -25
-13 -13 -330 -264 -396 -315 -82 -63 -82 -66 -23 -190 19 -41 38 -91 40 -111
5 -32 1 -39 -28 -61 -19 -14 -74 -47 -124 -72 -447 -232 -831 -604 -1101
-1066 -129 -220 -236 -496 -280 -720 -7 -41 -16 -85 -18 -97 -3 -12 -8 -53
-12 -90 -4 -37 -8 -81 -10 -98 -5 -45 -5 -366 0 -395 3 -14 7 -52 10 -85 27
-269 93 -489 230 -765 84 -168 240 -409 335 -519 102 -117 138 -156 216 -232
178 -174 362 -306 590 -424 207 -107 236 -126 229 -150 -10 -31 -73 -178 -145
-333 -16 -35 -29 -67 -29 -73 0 -5 12 -14 28 -20 15 -6 101 -46 190 -90 212
-104 334 -179 575 -352 l98 -71 -2 -270 c-1 -295 -4 -335 -26 -343 -16 -6 -27
-1 -278 145 -442 256 -841 529 -1119 765 -27 23 -59 49 -70 57 -12 8 -25 19
-31 25 -5 6 -48 44 -95 85 -84 73 -388 373 -465 460 -22 25 -64 74 -93 110
-29 36 -61 74 -70 85 -32 36 -118 158 -177 250 -32 50 -66 101 -75 115 -34 51
-178 349 -219 455 -116 296 -210 649 -246 920 -3 22 -8 49 -10 60 -20 97 -28
543 -12 660 20 145 46 247 94 370 94 242 190 392 427 664 383 440 463 537 452
548 -20 20 -448 -179 -593 -276 -188 -127 -439 -355 -638 -582 -34 -39 -45
-54 -120 -166 -202 -302 -372 -759 -424 -1143 -9 -61 -6 -534 3 -629 3 -24 7
-71 10 -105 4 -34 8 -72 10 -86 3 -14 7 -45 10 -70 8 -62 27 -160 51 -260 52
-226 174 -582 307 -900 81 -192 215 -442 331 -615 77 -115 466 -647 487 -665
3 -3 21 -27 39 -55 19 -27 38 -52 41 -55 14 -11 274 -376 323 -453 93 -143
179 -362 212 -539 30 -159 36 -188 45 -193 7 -4 176 127 200 155 3 4 64 58
135 121 134 117 190 166 209 184 6 6 58 51 116 100 58 50 107 92 110 95 20 21
233 192 265 213 39 25 42 26 90 13 119 -31 367 -151 555 -267 l45 -28 -50 -21
c-28 -12 -68 -30 -90 -40 -47 -22 -102 -46 -205 -90 -174 -75 -355 -181 -446
-262 -81 -71 -206 -201 -249 -259 -47 -64 -98 -165 -109 -214 -3 -16 -9 -41
-12 -55 -10 -50 -11 -211 -1 -256 9 -37 25 -61 76 -114 75 -77 122 -101 202
-101 82 -1 126 9 205 47 123 58 225 182 238 289 3 26 -9 93 -35 194 -21 85
-39 158 -39 163 0 17 274 166 390 212 67 26 280 76 325 76 l25 0 -4 -368 c-2
-219 -8 -381 -15 -401 -5 -18 -32 -57 -59 -85 -89 -93 -133 -188 -138 -296 -8
-145 84 -309 226 -407 147 -100 369 -107 553 -18 161 77 296 279 281 418 -9
79 -91 247 -154 317 -22 24 -40 49 -41 55 0 5 -2 19 -5 30 -22 112 -22 731 2
754 9 9 126 -19 247 -60 164 -54 466 -206 467 -235 0 -5 -16 -75 -36 -155 -45
-178 -46 -217 -9 -289 76 -150 264 -251 441 -237 88 7 145 40 192 114 119 187
88 408 -90 634 -83 107 -288 293 -389 354 -9 6 -48 29 -87 53 -100 60 -267
141 -407 197 -66 27 -123 51 -127 55 -4 3 9 14 30 25 20 10 44 25 52 31 42 34
321 165 436 204 l131 44 77 -57 c67 -50 303 -243 332 -272 6 -5 35 -30 64 -55
29 -25 58 -50 64 -55 6 -6 76 -67 156 -135 80 -69 150 -129 156 -135 70 -64
218 -185 225 -185 9 0 18 44 39 204 19 148 93 328 216 527 107 172 246 364
599 824 274 356 323 423 363 493 46 77 151 288 207 412 21 47 49 109 62 138
43 94 151 375 188 488 56 173 132 471 149 589 4 23 8 50 10 60 2 11 7 43 10
70 4 28 9 67 12 87 16 116 21 237 18 433 -2 121 -5 234 -8 250 -2 17 -7 55
-10 85 -4 30 -9 64 -11 75 -3 11 -7 36 -10 55 -9 65 -47 225 -76 325 -60 200
-173 437 -302 630 -54 80 -142 202 -157 215 -3 3 -30 34 -60 70 -90 108 -243
256 -355 345 -27 22 -52 43 -55 46 -10 11 -142 100 -208 141 -97 59 -217 122
-292 153 -36 14 -79 33 -97 41 -17 8 -37 14 -45 14 -7 1 -31 7 -52 15 -22 8
-43 12 -48 9 -12 -8 57 -104 183 -254 106 -126 135 -160 199 -230 14 -15 36
-40 50 -56 14 -16 52 -61 85 -99 261 -302 387 -552 421 -840 3 -22 8 -51 11
-65 3 -14 7 -160 8 -325 2 -292 -4 -390 -40 -608 -21 -124 -120 -474 -183
-642 -234 -628 -654 -1182 -1317 -1735 -166 -139 -548 -422 -666 -495 -147
-90 -446 -269 -484 -289 -27 -15 -66 -37 -85 -48 -91 -53 -184 -98 -191 -91
-13 13 -22 163 -23 388 -1 247 -22 206 176 345 180 126 371 239 571 338 92 46
167 88 167 94 0 5 -45 99 -100 209 l-101 199 27 11 c222 84 437 208 648 373
225 176 434 392 567 586 150 217 256 427 330 655 39 116 85 318 95 414 3 25 8
80 13 121 9 81 7 390 -2 455 -4 22 -9 60 -12 85 -28 214 -119 510 -220 710
-180 357 -422 653 -766 935 -51 42 -167 125 -249 177 -152 98 -245 144 -387
193 -11 4 33 121 93 245 l21 44 -46 33 c-25 17 -50 36 -56 40 -5 5 -41 31 -80
58 -38 27 -76 55 -83 62 -7 7 -17 13 -21 13 -4 0 -16 8 -27 18 -10 9 -39 33
-64 52 -119 91 -365 324 -481 455 -63 71 -244 298 -284 357 -22 32 -42 57 -45
58 -3 0 -62 -73 -130 -162z m1190 -1843 c166 -82 296 -179 469 -348 265 -259
418 -476 496 -702 93 -274 143 -503 149 -691 2 -66 -18 -264 -30 -293 -3 -9
-8 -29 -11 -46 -6 -42 -59 -223 -85 -292 -80 -215 -324 -580 -528 -791 -146
-150 -639 -527 -661 -505 -23 23 -116 346 -233 804 -72 282 -71 278 -87 399
-19 135 -15 935 5 1036 2 11 7 56 11 99 3 43 8 81 10 85 2 3 6 26 10 50 4 25
11 68 17 95 5 28 12 64 15 80 20 121 164 711 210 865 10 30 17 57 18 60 3 18
40 120 51 142 17 33 13 34 174 -47z m-1900 -113 c22 -81 50 -178 61 -216 55
-190 151 -604 184 -791 2 -16 7 -39 9 -50 2 -11 7 -45 12 -75 4 -30 8 -57 9
-60 1 -3 5 -32 9 -65 5 -33 10 -69 12 -80 2 -10 6 -51 10 -90 3 -38 8 -79 10
-90 23 -119 22 -565 0 -705 -3 -14 -7 -55 -11 -92 -3 -37 -8 -77 -10 -90 -4
-25 -12 -75 -20 -135 -4 -21 -11 -63 -16 -93 -6 -30 -13 -68 -15 -85 -21 -125
-217 -758 -248 -800 -12 -17 -20 -15 -117 37 -144 76 -327 194 -433 278 -68
54 -224 208 -268 265 -12 17 -31 39 -41 50 -47 51 -185 272 -238 381 -132 270
-181 493 -181 809 1 367 56 609 204 900 201 396 515 716 903 916 93 49 112 55
121 43 7 -8 31 -81 54 -162z"/>
</g>
</svg>
